<?xml version="1.0" encoding="UTF-8" standalone="no"?>
<svg
   xmlns:dc="http://purl.org/dc/elements/1.1/"
   xmlns:cc="http://creativecommons.org/ns#"
   xmlns:rdf="http://www.w3.org/1999/02/22-rdf-syntax-ns#"
   xmlns:svg="http://www.w3.org/2000/svg"
   xmlns="http://www.w3.org/2000/svg"
   viewBox="0 0 2254.3066 1454.6"
   height="1454.6"
   width="2254.3066"
   xml:space="preserve"
   id="svg2"
   version="1.1"><metadata
     id="metadata8"><rdf:RDF><cc:Work
         rdf:about=""><dc:format>image/svg+xml</dc:format><dc:type
           rdf:resource="http://purl.org/dc/dcmitype/StillImage" /></cc:Work></rdf:RDF></metadata><defs
     id="defs6"><clipPath
       id="clipPath18"
       clipPathUnits="userSpaceOnUse"><path
         id="path16"
         d="M 0,1090.947 H 1690.728 V 0 H 0 Z" /></clipPath></defs><g
     transform="matrix(1.3333333,0,0,-1.3333333,0,1454.6)"
     id="g10"><g
       id="g12"><g
         clip-path="url(#clipPath18)"
         id="g14"><g
           transform="translate(134.1191,999.5405)"
           id="g20"><path
             id="path22"
             style="fill:#ffffff;fill-opacity:1;fill-rule:nonzero;stroke:none"
             d="m 0,0 -0.065,-357.733 c 0,-11.592 0.692,-15.716 -7.529,-20.831 -8.051,-4.987 -16.286,-5.81 -29.53,-8.071 0,0 -0.14,-0.01 -0.24,-0.031 -1.322,-0.335 -1.082,-5.333 0.24,-5.333 h 289.381 c 122.059,0 173.392,48.442 173.392,123.987 0,55.869 -26.011,90.012 -77.515,102.848 -0.867,0.219 -0.918,1.374 0,1.651 32.817,10.233 62.99,33.99 62.99,92.139 0,78.863 -53.285,105.569 -169.507,105.569 l -278.644,0.003 c -1.319,0 -1.59,-4.987 -0.261,-5.32 0.103,-0.02 0.239,-0.048 0.239,-0.048 13.255,-2.254 21.493,-3.076 29.533,-8.067 C 0.695,15.665 0,11.599 0,0 m 135.782,-300.322 v 85.939 c 0,5.762 -0.699,10.03 -0.699,10.03 0,0 5.036,-0.699 10.054,-0.699 h 47.367 c 37.771,0 83.996,0 83.996,-52.316 0,-38.693 -33.095,-52.276 -77.642,-52.276 h -53.731 c -5.07,0 -9.913,-0.75 -9.913,-0.75 0,0 0.568,5.156 0.568,10.072 m 0,170.487 v 74.278 c 0,5.745 -0.829,10.198 -0.829,10.198 0,0 5.186,-0.829 10.222,-0.829 h 55.995 c 42.629,0 67.637,-6.615 67.637,-45.349 0,-25.178 -15.529,-47.647 -65.899,-47.647 h -57.733 c -5.039,0 -10.044,-0.644 -10.044,-0.644 0,0 0.651,4.858 0.651,9.993" /></g><g
           transform="translate(1592.1731,999.53)"
           id="g24"><path
             id="path26"
             style="fill:#ffffff;fill-opacity:1;fill-rule:nonzero;stroke:none"
             d="m 0,0 c 0,11.603 -0.651,15.676 7.55,20.773 8.063,4.991 16.299,5.814 29.549,8.068 0,0 0.123,0.027 0.247,0.048 1.33,0.332 1.075,5.316 -0.247,5.316 l -213.465,0.011 c -1.322,0 -1.582,-4.989 -0.24,-5.317 0.096,-0.027 0.233,-0.052 0.233,-0.052 13.47,-1.692 19.766,-3.069 27.789,-8.064 8.214,-5.09 7.516,-9.201 7.516,-20.793 v -214.986 c 0,-49.008 -28.056,-86.7 -83.812,-86.7 -55.755,0 -83.832,37.692 -83.832,86.7 l 0.007,214.945 c 0,11.592 -0.678,15.727 7.529,20.821 8.051,4.984 14.744,6.228 27.775,8.071 0,0 0.158,0.027 0.247,0.048 1.343,0.329 1.083,5.316 -0.253,5.316 l -201.428,-0.01 c -1.514,0 -1.199,-5.015 0.035,-5.286 0.144,-0.031 0.267,-0.062 0.267,-0.062 7.378,-0.455 12.421,-0.877 16.936,-4.734 6.722,-5.704 7.817,-12.514 7.817,-24.113 l -0.013,-211.321 c 0,-101.895 55.742,-188.385 224.913,-188.385 169.158,0 224.88,86.49 224.88,188.385 z" /></g><g
           transform="translate(945.3645,607.5416)"
           id="g28"><path
             id="path30"
             style="fill:#ffffff;fill-opacity:1;fill-rule:nonzero;stroke:none"
             d="M 0,0 C 1.343,0 1.617,4.998 0.315,5.323 0.171,5.354 0.027,5.354 0.027,5.354 c -13.209,2.261 -21.444,3.083 -29.515,8.071 -8.2,5.124 -7.523,9.239 -7.523,20.831 v 135.758 l 147.604,219.172 c 8.085,12.021 13.237,18.297 19.896,23.884 1.124,0.959 3.837,2.751 5.489,3.802 6.09,3.053 8.433,3.758 15.97,3.985 0,0 0.11,0.04 0.226,0.044 1.356,0.174 1.747,5.285 0.212,5.285 l -199.071,0.018 c -1.616,0 -1.301,-5.204 0.096,-5.344 0.083,-0.003 0.233,-0.052 0.233,-0.052 9.654,0 21.555,-0.089 19.636,-13.952 -1.123,-13.439 -58.469,-96.422 -78.92,-127.934 -2.925,-4.505 -5.2,-9.17 -6.2,-14.836 -0.726,5.573 -4.22,11.263 -6.601,14.781 -28.487,42.409 -77.211,111.179 -78.619,128.016 -1.171,14.385 9.969,13.974 19.626,13.974 0,0 0.133,0.044 0.26,0.054 1.374,0.13 1.885,5.293 0.253,5.293 l -209.045,-0.011 c -1.254,0 -1.107,-4.812 0.12,-5.282 0.099,-0.041 0.257,-0.051 0.257,-0.051 8.926,-0.911 13.795,-0.281 24.246,-5.385 1.23,-0.593 4.152,-2.532 5.276,-3.488 6.646,-5.597 10.711,-10.76 18.817,-22.784 l 147.388,-218.253 0.01,-136.684 c 0,-11.592 0.685,-15.717 -7.533,-20.831 -8.037,-4.998 -16.275,-5.82 -29.508,-8.081 0,0 -0.158,0 -0.257,-0.031 C -228.486,4.998 -228.233,0 -226.89,0 Z" /></g><g
           transform="translate(412.7331,400.8765)"
           id="g32"><path
             id="path34"
             style="fill:#ffffff;fill-opacity:1;fill-rule:nonzero;stroke:none"
             d="m 0,0 c -24.815,0 -35.154,-3.337 -38.048,-7.064 -2.478,-3.275 -6.191,-21.506 -6.191,-81.859 v -61.614 c 0,-52.967 3.713,-73.596 9.085,-79.405 7.464,-7.845 16.954,-10.737 38.477,-10.737 81.037,0 118.263,38.45 118.263,116.198 C 121.586,-61.216 78.971,0 0,0 M 116.622,-213.404 C 88.104,-241.925 56.67,-254.313 3.744,-254.313 c -18.221,0 -47.572,0.829 -62.877,0.829 -15.323,0 -34.322,-0.829 -52.516,-0.829 -1.25,0 -1.661,4.919 0.411,5.372 16.108,1.644 23.168,4.11 28.108,7.016 5.416,2.891 8.674,9.934 8.674,91.388 v 60.36 c 0,81.468 -3.258,88.909 -8.674,91.417 -4.94,2.891 -12,5.33 -28.108,7.029 -2.072,0.398 -1.661,5.365 -0.411,5.365 18.194,0 37.193,-0.83 52.516,-0.83 15.305,0 53.347,0.83 71.955,0.83 83.12,0 143.068,-55.817 143.068,-130.675 0,-35.983 -14.456,-71.129 -39.268,-96.363" /></g><g
           transform="translate(750.1722,363.6259)"
           id="g36"><path
             id="path38"
             style="fill:#ffffff;fill-opacity:1;fill-rule:nonzero;stroke:none"
             d="m 0,0 -36.397,-99.652 h 73.195 z m 51.264,-217.062 c -1.219,0 -1.637,4.919 0,5.372 12.792,1.232 20.684,3.706 20.684,9.906 0,7.044 -5.375,25.631 -28.964,85.216 h -85.555 c -19.46,-53.378 -24.003,-73.637 -24.003,-82.324 0,-7.434 5.782,-11.155 23.589,-12.798 1.634,-0.453 1.216,-5.372 0,-5.372 h -84.795 c -1.25,0 -2.066,4.919 0,5.372 12.421,1.232 19.841,3.706 26.028,7.823 4.162,3.33 11.582,9.127 41.355,90.581 l 21.93,60.36 c 12.823,34.736 26.483,70.733 36.819,102.981 0.819,2.871 13.223,2.871 14.042,0 12.414,-35.989 23.174,-65.334 37.651,-102.981 l 23.551,-60.36 c 32.242,-81.454 37.641,-87.662 43.41,-91.389 7.043,-4.57 13.264,-5.783 24.842,-7.015 1.603,-0.453 1.241,-5.372 0,-5.372 z" /></g><g
           transform="translate(1139.3108,146.5636)"
           id="g40"><path
             id="path42"
             style="fill:#ffffff;fill-opacity:1;fill-rule:nonzero;stroke:none"
             d="m 0,0 c -1.686,0 -1.686,4.919 0.411,5.372 16.1,1.644 23.157,4.11 28.104,7.016 4.96,2.891 8.653,9.934 8.653,91.388 v 25.645 h -156.305 v -25.645 c 0,-81.454 3.761,-88.497 8.708,-91.388 4.96,-2.906 11.962,-5.372 28.117,-7.016 C -80.229,4.919 -80.229,0 -81.475,0 h -105.051 c -1.254,0 -1.651,4.919 0.432,5.372 16.1,1.644 23.17,4.11 28.103,7.016 5.358,2.891 8.688,9.934 8.688,91.388 v 60.36 c 0,81.468 -3.33,88.909 -8.688,91.417 -4.933,2.891 -12.003,5.33 -28.103,7.029 -2.083,0.397 -1.686,5.365 -0.432,5.365 h 105.051 c 1.246,0 1.246,-4.968 -0.837,-5.365 -16.155,-1.699 -23.157,-4.138 -28.117,-7.029 -4.947,-2.508 -8.708,-9.949 -8.708,-91.417 v -19.41 H 37.168 v 19.41 c 0,81.468 -3.693,88.909 -8.653,91.417 -4.947,2.891 -12.004,5.33 -28.104,7.029 -2.097,0.397 -2.097,5.365 -0.411,5.365 h 104.619 c 1.644,0 1.644,-4.968 -0.405,-5.365 -16.175,-1.699 -23.198,-4.138 -28.179,-7.029 -4.933,-2.508 -8.687,-9.949 -8.687,-91.417 v -60.36 c 0,-81.454 3.754,-88.497 8.687,-91.388 C 81.016,9.482 88.039,7.016 104.214,5.372 106.263,4.919 106.263,0 104.619,0 Z" /></g><g
           transform="translate(1463.4713,401.6981)"
           id="g44"><path
             id="path46"
             style="fill:#ffffff;fill-opacity:1;fill-rule:nonzero;stroke:none"
             d="m 0,0 c -73.993,0 -98.398,-59.147 -98.398,-112.491 0,-67.416 42.574,-129.831 108.716,-129.831 73.652,0 98.028,59.14 98.028,112.498 C 108.346,-62.47 66.176,0 0,0 m 2.083,-257.649 c -78.557,0 -134.819,58.318 -134.819,133.176 0,71.122 56.262,139.765 140.643,139.765 78.933,0 134.778,-58.297 134.778,-133.154 0,-71.13 -55.845,-139.787 -140.602,-139.787" /></g><g
           transform="translate(96.2659,514.6551)"
           id="g48"><path
             id="path50"
             style="fill:#ffffff;fill-opacity:1;fill-rule:nonzero;stroke:none"
             d="m 0,0 c -1.908,0 -3.466,-1.552 -3.466,-3.446 0,-1.929 1.558,-3.49 3.466,-3.49 h 1486.911 c 1.925,0 3.48,1.561 3.48,3.49 0,1.894 -1.555,3.446 -3.48,3.446 z" /></g><g
           transform="translate(95.9509,146.6183)"
           id="g52"><path
             id="path54"
             style="fill:#ffffff;fill-opacity:1;fill-rule:nonzero;stroke:none"
             d="m 0,0 c -1.237,0 -1.237,4.94 0.435,5.378 16.104,1.659 26.877,4.104 31.841,7.03 4.964,2.884 8.677,9.907 8.677,91.355 v 60.36 c 0,81.427 -3.713,88.874 -8.677,91.375 -4.964,2.891 -15.737,5.344 -31.841,7.03 -1.672,0.411 -1.672,5.371 -0.435,5.371 h 111.631 c 1.24,0 1.652,-4.96 -0.411,-5.371 -16.107,-1.686 -26.46,-4.139 -31.403,-7.03 -5.378,-2.501 -9.119,-9.948 -9.119,-91.375 v -60.36 c 0,-81.448 3.741,-88.471 9.119,-91.355 C 84.76,9.482 95.113,7.037 111.22,5.378 113.283,4.94 112.871,0 111.631,0 Z" /></g></g></g></g></svg>